<?xml version="1.0" encoding="UTF-8"?>
<!DOCTYPE svg PUBLIC "-//W3C//DTD SVG 1.1//EN" "http://www.w3.org/Graphics/SVG/1.1/DTD/svg11.dtd">
<svg version="1.1" xmlns="http://www.w3.org/2000/svg" xmlns:xlink="http://www.w3.org/1999/xlink" x="0" y="0" width="600" height="180" viewBox="0, 0, 600, 180">
  <g id="Background">
    <rect x="0" y="0" width="600" height="180" fill="#FFFFFF"/>
  </g>
  <g id="Layer_1">
    <g>
      <g>
        <g>
          <g>
            <g>
              <g>
                <text transform="matrix(1, 0, 0, 1, 118.533, 88.856)">
                  <tspan x="-78.013" y="8.5" font-family="NotoMono" font-size="20" fill="#333333">op::Operation</tspan>
                </text>
                <text transform="matrix(1, 0, 0, 1, 106.531, 131.856)">
                  <tspan x="-66.011" y="-5.5" font-family="NotoMono" font-size="20" fill="#333333">seqpos::Int</tspan>
                  <tspan x="-66.011" y="22.5" font-family="NotoMono" font-size="20" fill="#333333">refpos::Int</tspan>
                </text>
              </g>
              <path d="M28.781,75.856 L209.284,75.856 L209.284,161.856 L28.781,161.856 L28.781,75.856 z" fill-opacity="0" stroke="#000000" stroke-width="2"/>
            </g>
            <text transform="matrix(1, 0, 0, 1, 64.287, 59.856)">
              <tspan x="-36.006" y="8.5" font-family="NotoMono" font-size="20" fill="#333333">Anchor</tspan>
            </text>
          </g>
          <g>
            <g>
              <g>
                <text transform="matrix(1, 0, 0, 1, 299.036, 88.856)">
                  <tspan x="-78.013" y="8.5" font-family="NotoMono" font-size="20" fill="#333333">op::Operation</tspan>
                </text>
                <text transform="matrix(1, 0, 0, 1, 287.034, 131.856)">
                  <tspan x="-66.011" y="-5.5" font-family="NotoMono" font-size="20" fill="#333333">seqpos::Int</tspan>
                  <tspan x="-66.011" y="22.5" font-family="NotoMono" font-size="20" fill="#333333">refpos::Int</tspan>
                </text>
              </g>
              <path d="M209.284,75.856 L389.787,75.856 L389.787,161.856 L209.284,161.856 L209.284,75.856 z" fill-opacity="0" stroke="#000000" stroke-width="2"/>
            </g>
            <text transform="matrix(1, 0, 0, 1, 244.79, 59.856)">
              <tspan x="-36.006" y="8.5" font-family="NotoMono" font-size="20" fill="#333333">Anchor</tspan>
            </text>
          </g>
          <g>
            <g>
              <path d="M389.787,75.856 L570.29,75.856 L570.29,161.856 L389.787,161.856 L389.787,75.856 z" fill-opacity="0" stroke="#000000" stroke-width="2"/>
            </g>
          </g>
        </g>
        <text transform="matrix(1, 0, 0, 1, 483.399, 119.707)">
          <tspan x="-18.003" y="8.5" font-family="NotoMono" font-size="20" fill="#333333">...</tspan>
        </text>
      </g>
      <path d="M18.175,44.927 L582.825,44.927 L582.825,168.784 L18.175,168.784 L18.175,44.927 z" fill-opacity="0" stroke="#000000" stroke-width="2"/>
      <text transform="matrix(1, 0, 0, 1, 71.683, 26.216)">
        <tspan x="-54.009" y="8.5" font-family="NotoMono" font-size="20" fill="#333333">Alignment</tspan>
      </text>
    </g>
  </g>
</svg>
