<svg xmlns="http://www.w3.org/2000/svg" xmlns:xlink="http://www.w3.org/1999/xlink" viewBox="0 0 155.63396 179.71062">
  <defs>
    <linearGradient id="c">
      <stop offset="0" stop-color="#c93d39"/>
      <stop offset="1" stop-color="#fff" stop-opacity="0"/>
    </linearGradient>
    <linearGradient id="b">
      <stop offset="0" stop-color="#3b972e"/>
      <stop offset="1" stop-color="#fff" stop-opacity="0"/>
    </linearGradient>
    <linearGradient id="a">
      <stop offset="0" stop-color="#945bb0"/>
      <stop offset="1" stop-color="#fff" stop-opacity="0"/>
    </linearGradient>
    <radialGradient id="f" cx="414.02301" cy="687.40204" r="86.830666" fx="414.02301" fy="687.40204" gradientTransform="matrix(.0142 -1.5297 1.71535 .01591 -1033.5146 1628.7627)" gradientUnits="userSpaceOnUse" xlink:href="#a"/>
    <radialGradient id="d" cx="499.3504" cy="645.45337" r="86.830666" fx="499.3504" fy="645.45337" gradientTransform="matrix(-1.26566 1.227 -1.1253 -1.16075 1436.5452 1012.4852)" gradientUnits="userSpaceOnUse" xlink:href="#b"/>
    <radialGradient id="e" cx="580.789" cy="628.65375" r="86.830666" fx="580.789" fy="628.65375" gradientTransform="matrix(1.72341 -.00186 .00163 1.51192 -998.84418 55.629146)" gradientUnits="userSpaceOnUse" xlink:href="#c"/>
  </defs>
  <g transform="translate(2.4e-7 -872.65159)">
    <path fill="#fff" d="M155.1753 1007.1697l-77.358322 44.6629-77.35831755-44.6629 3.9e-7-89.32565L77.816979 873.18121l77.358321 44.66284z"/>
    <text x="124.75384" y="841.2403" font-family="sans-serif" font-size="40" font-weight="400" letter-spacing="0" style="line-height:125%" word-spacing="0"/>
    <path fill="none" stroke="url(#d)" stroke-width="4.45108843" d="M152.82938 1005.652l-75.072644 43.3432-75.072645-43.3432 4e-7-86.68644 75.0726456-43.34321 75.072643 43.34322z"/>
    <path fill="none" stroke="url(#e)" stroke-width="4.45108843" d="M152.82938 1005.652l-75.072644 43.3432-75.072645-43.3432 4e-7-86.68644 75.0726456-43.34321 75.072643 43.34322z"/>
    <path fill="none" stroke="url(#f)" stroke-width="4.45108843" d="M152.82938 1005.652l-75.072644 43.3432-75.072645-43.3432 4e-7-86.68644 75.0726456-43.34321 75.072643 43.34322z"/>
    <path fill="none" stroke="#3e3e3e" stroke-width=".91732138" d="M155.1753 1007.1697l-77.358322 44.6629-77.35831755-44.6629 3.9e-7-89.32565L77.816979 873.18121l77.358321 44.66284z"/>
    <path fill="none" stroke="#1a1a1a" stroke-width="1.02101922" d="M11.422218 981.22833v9.51876"/>
    <path fill="#1a1a1a" d="M66.250978 908.64488q1.4163 0 2.54934.61373 1.156645.59012 1.817585 1.65235.684546 1.06222.684546 2.3841 0 1.25107-.684546 2.24248-.66094.99141-1.79398 1.53432 1.628745.4485 2.572946 1.62875.9442 1.15664.9442 2.92702 0 1.58153-.731755 2.8326-.731756 1.22746-2.030031 1.93561-1.27467.68454-2.92702.68454h-6.019275q-.4721 0-.75536-.23605-.28326-.25965-.28326-.68454v-16.59432q0-.40128.259655-.66094.259655-.25965.66094-.25965h5.736015zm0 7.69523q1.439905 0 2.336895-.80257.920595-.82618.920595-2.24248 0-1.36909-.89699-2.12445t-2.3605-.75536h-4.81542v5.92486h4.81542zm.401285 8.9699q1.723165 0 2.78539-.99141 1.08583-1.01502 1.08583-2.69097 0-1.60514-1.08583-2.54934-1.062225-.96781-2.78539-.96781h-5.216705v7.19953h5.216705zM76.102747 915.08904q0-.40128.259655-.66094.259655-.25965.66094-.25965.401285 0 .637335.25965.259655.25966.259655.66094v11.07075q0 .40128-.259655.66094-.23605.25965-.637335.25965t-.66094-.25965q-.259655-.25966-.259655-.66094v-11.07075zm.920595-5.94846q.51931 0 .89699.35408.37768.35407.37768.92059 0 .54292-.37768.9206t-.920595.37768q-.542915 0-.920595-.37768-.354075-.37768-.354075-.9206 0-.56652.37768-.92059.37768-.35408.920595-.35408zM88.426032 914.05042q1.864795 0 3.351911.84978 1.487115.84978 2.336895 2.3605.873385 1.51072.873385 3.37552 0 1.86479-.84978 3.37551-.84978 1.48712-2.3605 2.3369-1.487116.84978-3.351911.84978-1.864795 0-3.375515-.84978-1.487115-.84978-2.336895-2.3369-.84978-1.51072-.84978-3.37551 0-1.8648.84978-3.37552.84978-1.51072 2.336895-2.3605 1.51072-.84978 3.375515-.84978zm0 1.65235q-1.345485 0-2.45492.63734-1.08583.63733-1.723165 1.77037-.61373 1.10944-.61373 2.52574 0 1.39269.61373 2.52573.637335 1.10944 1.723165 1.74677 1.109435.63734 2.45492.63734 1.36909 0 2.45492-.63734 1.085831-.63733 1.699561-1.74677.61373-1.13304.61373-2.52573 0-1.4163-.61373-2.52574-.61373-1.13304-1.699561-1.77037-1.08583-.63734-2.45492-.63734zM26.201742 949.51368q.09442.16523.09442.37768 0 .37768-.28326.66094-.259655.25965-.637335.25965-.61373 0-.873385-.56652l-1.581535-3.82401h-9.135136l-1.581535 3.82401q-.18884.56652-.84978.56652-.401285 0-.66094-.25965-.23605-.28326-.23605-.66094 0-.23605.07082-.40129l6.93987-16.47629q.259655-.63734.89699-.63734t.873385.63734l6.963476 16.4999zm-3.91843-4.67379l-3.918431-9.46561-3.91843 9.46561h7.836861zM28.304431 933.27343q0-.40128.259655-.63733.259655-.25966.637335-.25966.401285 0 .637335.25966.259655.23605.259655.63733v13.45486q0 1.01501.401285 1.65235.42489.63733 1.062225.63733h.590125q.354075 0 .56652.25966.212445.23605.212445.63733 0 .40129-.306865.66094-.28326.23605-.75536.23605h-.306865q-1.439905 0-2.3605-1.13304-.89699-1.15664-.89699-2.95062v-13.45486zM35.839222 938.82061q0-.40129.259655-.66094.259655-.25966.66094-.25966.401285 0 .637335.25966.259655.25965.259655.66094v11.07075q0 .40128-.259655.66094-.23605.25965-.637335.25965t-.66094-.25965q-.259655-.25966-.259655-.66094v-11.07075zm.920595-5.94846q.51931 0 .89699.35407.37768.35408.37768.9206 0 .54291-.37768.92059t-.920595.37768q-.542915 0-.920595-.37768-.354075-.37768-.354075-.92059 0-.56652.37768-.9206.37768-.35407.920595-.35407zM48.162507 937.78199q1.8884 0 3.375516.84978 1.487115.82617 2.336895 2.3369.84978 1.48711.84978 3.39912v4.81542q0 1.8884-.84978 3.42272-.826175 1.53433-2.31329 2.40771-1.487116.89699-3.351911.89699-1.817585 0-3.233885-.68454-1.4163-.68455-2.384105-1.91201-.212445-.23605-.212445-.54291 0-.35408.33047-.61373.23605-.16524.51931-.16524.212445 0 .42489.0944.212445.11803.33047.28326.70815.89699 1.79398 1.3927 1.08583.4957 2.45492.4957 1.32188 0 2.384105-.66094 1.085831-.63733 1.699561-1.81758.61373-1.15665.61373-2.66737v-1.06222q-.70815 1.34548-2.006426 2.12445-1.298275.75536-2.950625.75536-1.84119 0-3.3047-.82618-1.439905-.84978-2.26608-2.33689-.80257-1.51072-.80257-3.39912 0-1.91201.84978-3.39912.84978-1.51073 2.336895-2.3369 1.51072-.84978 3.375515-.84978zm0 11.49564q1.36909 0 2.45492-.61373 1.085831-.63734 1.699561-1.74677.61373-1.13304.61373-2.54934t-.61373-2.52574q-.61373-1.13304-1.699561-1.77037-1.08583-.63734-2.45492-.63734-1.392695 0-2.478525.63734-1.08583.63733-1.69956 1.77037-.61373 1.10944-.61373 2.52574t.61373 2.54934q.61373 1.10943 1.69956 1.74677 1.08583.61373 2.478525.61373zM64.350376 937.75838q1.675955 0 2.997835.70815 1.345485.70815 2.100845 2.07725.75536 1.34548.75536 3.23388v6.1373q0 .37768-.259655.63734-.259655.25965-.637335.25965-.401285 0-.66094-.25965-.259655-.25966-.259655-.63734v-6.1373q0-2.10084-1.18025-3.18667-1.156645-1.10944-3.045045-1.10944-1.156645 0-2.100845.4485-.920595.44849-1.46351 1.25106-.542915.77897-.542915 1.74677v6.98708q0 .40129-.259655.66094-.23605.23605-.637336.23605-.401285 0-.66094-.23605-.259655-.25965-.259655-.66094v-11.09435q0-.40129.259655-.66094.259655-.25966.66094-.25966.401286 0 .637336.25966.259655.25965.259655.66094v.80257q.778965-.87339 1.8884-1.36909 1.109435-.49571 2.40771-.49571zM87.784978 937.75838q1.392695 0 2.45492.66094 1.08583.66094 1.675955 1.88841.61373 1.20385.61373 2.80899v6.79824q0 .40129-.259655.66094-.23605.23605-.637335.23605t-.66094-.23605q-.259655-.25965-.259655-.66094v-6.79824q0-1.67595-.873385-2.64376-.84978-.99141-2.242475-.99141-1.487115 0-2.40771.99141-.920595.99141-.89699 2.59655v6.84544q0 .40129-.259655.66094-.23605.23605-.637335.23605t-.66094-.23605q-.259656-.25965-.259656-.66094v-6.79824q0-1.67595-.873385-2.64376-.84978-.99141-2.242475-.99141-1.46351 0-2.40771.96781-.9442.9678-.9442 2.47852v6.98708q0 .40129-.259655.66094-.23605.23605-.637335.23605t-.66094-.23605q-.259655-.25965-.259655-.66094V938.8206q0-.40129.259655-.66094.259655-.25966.66094-.25966.401285 0 .637335.25966.259655.25965.259655.66094v.51931q.66094-.75536 1.55793-1.15665.920595-.42489 1.98282-.42489 1.298275 0 2.336895.59013 1.038621.59012 1.652351 1.65235.684545-1.06223 1.770375-1.65235 1.109435-.59013 2.478525-.59013zM102.04867 937.78199q1.74677 0 3.09225.82617 1.34549.80257 2.07724 2.24248.75536 1.43991.75536 3.2811 0 .37768-.23605.61373-.23605.21244-.61373.21244h-9.536416q.18884 1.93561 1.51072 3.13947 1.321876 1.20385 3.304696 1.20385.84978 0 1.69956-.28326.87339-.30686 1.3927-.75536.30686-.23605.63733-.23605.25966 0 .51931.18884.30687.28326.30687.63734 0 .30686-.25966.54291-.77896.66094-1.98282 1.10944-1.20385.42489-2.31329.42489-1.8884 0-3.375511-.82618-1.487115-.84978-2.336895-2.33689-.826175-1.51072-.826175-3.39912 0-1.91201.778965-3.39912.80257-1.51073 2.195265-2.3369 1.416301-.84978 3.210281-.84978zm0 1.62874q-1.79398 0-2.974231 1.10944-1.18025 1.10944-1.439905 2.92702h8.639426q-.18884-1.81758-1.32188-2.92702-1.13304-1.10944-2.90341-1.10944zM117.1389 937.75838q1.67596 0 2.99784.70815 1.34548.70815 2.10084 2.07725.75536 1.34548.75536 3.23388v6.1373q0 .37768-.25965.63734-.25966.25965-.63734.25965-.40128 0-.66094-.25965-.25965-.25966-.25965-.63734v-6.1373q0-2.10084-1.18025-3.18667-1.15665-1.10944-3.04505-1.10944-1.15664 0-2.10084.4485-.9206.44849-1.46351 1.25106-.54292.77897-.54292 1.74677v6.98708q0 .40129-.25965.66094-.23605.23605-.63734.23605-.40128 0-.66094-.23605-.25965-.25965-.25965-.66094v-11.09435q0-.40129.25965-.66094.25966-.25966.66094-.25966.40129 0 .63734.25966.25965.25965.25965.66094v.80257q.77897-.87339 1.8884-1.36909 1.10944-.49571 2.40771-.49571zM132.66583 948.99437q.37768 0 .61373.25965.23605.25966.23605.66094 0 .37768-.28326.63734-.28326.25965-.70815.25965h-.4957q-1.25107 0-2.24248-.59012-.99141-.61373-1.55793-1.62875-.54291-1.03862-.54291-2.33689v-6.30254h-1.53433q-.37768 0-.61373-.21244-.21244-.23606-.21244-.56653 0-.35407.21244-.56652.23605-.23605.61373-.23605h1.53433v-3.65877q0-.40129.23605-.66094.25965-.25966.66094-.25966.40128 0 .66094.25966.25965.25965.25965.66094v3.65877h2.66737q.37768 0 .59012.23605.23605.21245.23605.56652 0 .33047-.23605.56653-.21244.21244-.59012.21244h-2.66737v6.30254q0 1.20385.70815 1.98282.70815.75536 1.81759.75536h.63733zM140.88959 937.78199q1.55793 0 2.71457.54291 1.15665.51931 1.8648 1.46352.18884.30686.18884.54291 0 .40129-.37768.63734-.16524.11802-.4485.11802-.4957 0-.82617-.35407-1.15665-1.32189-3.16307-1.32189-1.29828 0-2.07724.54292-.77897.51931-.77897 1.32188 0 .84978.73176 1.36909.73175.49571 2.59655.80257 2.52573.42489 3.61156 1.3927 1.08583.9442 1.08583 2.3605 0 1.08583-.66094 1.93561-.63733.84978-1.79398 1.32188-1.15664.4721-2.62015.4721-1.46351 0-2.809-.49571-1.34548-.4957-2.17166-1.39269-.23605-.28326-.23605-.54292 0-.40128.37768-.70815.28326-.21244.59013-.21244.40128 0 .68454.33047.56652.66094 1.48712 1.01501.9442.35408 2.07724.35408 1.65235 0 2.47852-.56652.82618-.56652.84978-1.48712 0-.84978-.82617-1.4163-.82618-.56652-2.62016-.84978-2.31329-.37768-3.46993-1.29827-1.13304-.9442-1.13304-2.26608 0-1.72317 1.32188-2.66737 1.34548-.9442 3.35191-.9442z" font-family="Comfortaa" font-weight="400" letter-spacing="0" style="line-height:125%;-inkscape-font-specification:'Comfortaa, Normal';text-align:start" word-spacing="0"/>
    <circle cx="11.928571" cy="975.7865" r="3.0043135" fill="#c93d39"/>
    <circle cx="20.357143" cy="975.7865" r="3.0043135" fill="#4266d5"/>
    <circle cx="29.642859" cy="975.7865" r="3.0043135" fill="#c93d39"/>
    <circle cx="38.214283" cy="975.7865" r="3.0043135" fill="#945bb0"/>
    <circle cx="-73.5" cy="975.57648" r="3.0043135" fill="#c93d39" transform="scale(-1 1)"/>
    <circle cx="-65.071426" cy="975.57648" r="3.0043135" fill="#4266d5" transform="scale(-1 1)"/>
    <circle cx="-55.785713" cy="975.57648" r="3.0043135" fill="#3b972e" transform="scale(-1 1)"/>
    <circle cx="-47.214287" cy="975.57648" r="3.0043135" fill="#c93d39" transform="scale(-1 1)"/>
    <circle cx="-109.42857" cy="975.7865" r="3.0043135" fill="#c93d39" transform="scale(-1 1)"/>
    <circle cx="-101" cy="975.7865" r="3.0043135" fill="#3b972e" transform="scale(-1 1)"/>
    <circle cx="-91.714287" cy="975.7865" r="3.0043135" fill="#3b972e" transform="scale(-1 1)"/>
    <circle cx="-83.14286" cy="975.7865" r="3.0043135" fill="#945bb0" transform="scale(-1 1)"/>
    <circle cx="118.42857" cy="975.57648" r="3.0043135" fill="#4266d5"/>
    <circle cx="126.85714" cy="975.57648" r="3.0043135" fill="#4266d5"/>
    <circle cx="136.14285" cy="975.57648" r="3.0043135" fill="#3b972e"/>
    <circle cx="144.71428" cy="975.57648" r="3.0043135" fill="#945bb0"/>
    <circle cx="11.928313" cy="995.7865" r="3.0043135" fill="#c93d39"/>
    <circle cx="20.356886" cy="995.7865" r="3.0043135" fill="#4266d5"/>
    <circle cx="29.642601" cy="995.7865" r="3.0043135" fill="#3b972e"/>
    <circle cx="38.214027" cy="995.7865" r="3.0043135" fill="#945bb0"/>
    <circle cx="-73.499741" cy="995.57648" r="3.0043135" fill="#c93d39" transform="scale(-1 1)"/>
    <circle cx="-65.071167" cy="995.57648" r="3.0043135" fill="#4266d5" transform="scale(-1 1)"/>
    <circle cx="-55.785454" cy="995.57648" r="3.0043135" fill="#3b972e" transform="scale(-1 1)"/>
    <circle cx="-47.214027" cy="995.57648" r="3.0043135" fill="#945bb0" transform="scale(-1 1)"/>
    <circle cx="-109.42831" cy="995.78644" r="3.0043135" fill="#4266d5" transform="scale(-1 1)"/>
    <circle cx="-100.99974" cy="995.78644" r="3.0043135" fill="#4266d5" transform="scale(-1 1)"/>
    <circle cx="-91.714027" cy="995.78644" r="3.0043135" fill="#3b972e" transform="scale(-1 1)"/>
    <circle cx="-83.142601" cy="995.78644" r="3.0043135" fill="#945bb0" transform="scale(-1 1)"/>
    <circle cx="118.42831" cy="995.57648" r="3.0043135" fill="#c93d39"/>
    <circle cx="126.85689" cy="995.57648" r="3.0043135" fill="#4266d5"/>
    <circle cx="136.14261" cy="995.57648" r="3.0043135" fill="#3b972e"/>
    <circle cx="144.71404" cy="995.57648" r="3.0043135" fill="#945bb0"/>
    <path fill="none" stroke="#1a1a1a" stroke-width="1.02101922" d="M20.350789 981.22833v9.51876M38.207931 981.22833v9.51876M55.707931 981.22833v9.51876M64.993645 981.22833v9.51876M73.565074 981.22833v9.51876M82.850788 981.22833v9.51876M91.422217 981.22833v9.51876M100.70793 981.22833v9.51876M126.77936 981.22833v9.51876M136.06507 981.22833v9.51876M144.6365 981.22833v9.51876"/>
  </g>
</svg>
